<svg id="Layer_1" data-name="Layer 1" xmlns="http://www.w3.org/2000/svg" viewBox="0 0 512 512"><title>digital_camera</title><path d="M71.65,80.38s2.66.31-1.81.16h-3.6l-2.65.13L61,80.54s-.73-.63-2-7.35a14.19,14.19,0,0,1-1.31-6.33s1.55-26.09,3.2-28c0,0-2.75,16.32-2.07,17.37,0,0,2.32-15.6,3.78-16.77,0,0-2.56,15.14-.77,16.54,0,0,2.36-13.93,4.23-15.56,0,0-.82,2.66-.61,3.39L66,42.57l-.14,2-.45,1.16s1.34-3.14,2-3.32c0,0-.7-1.46-.61,4.23C66.76,46.65,62,60,71.65,80.38Z" fill="#231f20"/><path d="M61.12,48s-.36,2.67-.18-1.81v-3.6L60.78,40l.16-2.62s.74-.73,8.77-2A19.47,19.47,0,0,1,77.27,34s31.17,1.54,33.47,3.2c0,0-19.5-2.75-20.74-2.07,0,0,18.63,2.31,20,3.78,0,0-18.08-2.57-19.76-.77,0,0,16.64,2.36,18.58,4.22,0,0-3.17-.81-4-.61l1.48.59-2.4-.13-1.39-.46s3.75,1.34,4,2c0,0,1.75-.71-5.07-.61C101.41,43.13,85.48,38.33,61.12,48Z" fill="#231f20"/><path d="M115.75,78.83s2.67.3-1.81.15h-3.6l-2.64.13L105.07,79s-.72-.63-2-7.34a14.12,14.12,0,0,1-1.32-6.33s1.55-26.09,3.2-28c0,0-2.75,16.32-2.07,17.37,0,0,2.32-15.6,3.79-16.77,0,0-2.56,15.14-.77,16.55,0,0,2.36-13.93,4.23-15.56,0,0-.81,2.66-.6,3.39l.58-1.24-.13,2-.45,1.15s1.34-3.13,2-3.32c0,0-.71-1.46-.61,4.23C110.86,45.1,106.06,58.43,115.75,78.83Z" fill="#231f20"/><path d="M402.9,127.88s-.3,2.67-.15-1.81l0-3.6-.13-2.65.12-2.63s.62-.73,7.35-2a14,14,0,0,1,6.33-1.32s26.09,1.54,28,3.19c0,0-16.31-2.75-17.37-2.07,0,0,15.6,2.31,16.78,3.78,0,0-15.15-2.56-16.54-.77,0,0,13.92,2.36,15.55,4.22,0,0-2.66-.8-3.38-.6l1.25.59-2-.13-1.14-.45s3.13,1.34,3.32,2c0,0,1.46-.72-4.22-.61C436.65,123,423.3,118.19,402.9,127.88Z" fill="#231f20"/><path d="M401.62,171s-.32,2.67-.17-1.82l0-3.6-.15-2.65.13-2.62s.64-.74,7.35-2a14.06,14.06,0,0,1,6.33-1.3s26.09,1.55,28,3.19c0,0-16.33-2.75-17.37-2.05,0,0,15.6,2.31,16.78,3.77,0,0-15.15-2.57-16.54-.78,0,0,13.94,2.36,15.57,4.23,0,0-2.66-.81-3.38-.61l1.23.58-2-.13-1.14-.45s3.11,1.35,3.33,2c0,0,1.45-.72-4.24-.59C435.35,166.13,422,161.32,401.62,171Z" fill="#231f20"/><path d="M408.36,163.16s2.68.3-1.82.16h-3.6l-2.64.15-2.61-.14s-.72-.61-2-7.34a14.17,14.17,0,0,1-1.31-6.33s1.55-26.09,3.18-28c0,0-2.74,16.31-2.05,17.36,0,0,2.32-15.61,3.79-16.77,0,0-2.57,15.14-.77,16.54,0,0,2.36-13.92,4.22-15.56,0,0-.81,2.66-.61,3.39l.59-1.23-.13,2-.46,1.16s1.35-3.12,2-3.32c0,0-.72-1.45-.61,4.23C403.47,129.44,398.66,142.77,408.36,163.16Z" fill="#231f20"/><path d="M451.26,164.45s2.66.31-1.82.16h-3.6l-2.64.14-2.61-.14s-.74-.63-2-7.35a13.88,13.88,0,0,1-1.31-6.31s1.57-26.1,3.22-28c0,0-2.76,16.33-2.07,17.38,0,0,2.32-15.61,3.77-16.77,0,0-2.54,15.13-.79,16.53,0,0,2.39-13.91,4.26-15.56,0,0-.81,2.67-.61,3.38l.59-1.22-.13,2-.45,1.14s1.33-3.11,2-3.3c0,0-.74-1.45-.61,4.23C446.39,130.72,441.58,144.05,451.26,164.45Z" fill="#231f20"/><path d="M23.7,475.5s-2.52,8.51-2.35-5.81l-1-11.44-2.53-8.41.76-8.34s6.64-2.4,80.38-7.16c0,0,29.47-4.78,69.29-4.78,0,0,288.59,2.47,310.27,7.51,0,0-180.95-7.19-192.34-4.91,0,0,173,5.9,186.32,10.45,0,0-167.84-6.73-182.78-.91,0,0,154.49,6.21,173.19,12,0,0-29.64-2.31-37.57-1.61l13.82,1.74-22.25-.24L404,452.26s34.81,4,37.25,6c0,0,15.87-2.43-47-1.52C394.3,456.75,245.66,442.69,23.7,475.5Z" fill="#231f20"/><path d="M19.9,105.68s-2.53,8.5-2.36-5.81l-1-11.44L14,80l.76-8.35s6.64-2.4,80.37-7.16a481.21,481.21,0,0,1,69.31-4.77S453,62.21,474.69,67.25c0,0-180.93-7.19-192.34-4.92,0,0,173,5.9,186.32,10.45,0,0-167.84-6.73-182.78-.91,0,0,154.51,6.21,173.21,12,0,0-29.66-2.31-37.58-1.61L435.32,84l-22.25-.25-12.84-1.33s34.82,4,37.25,6c0,0,15.87-2.43-47-1.52C390.5,86.92,241.86,72.87,19.9,105.68Z" fill="#231f20"/><path d="M509.49,428.77s8.48,2-5.76,1.9l-11.39.81-8.36,2-8.3-.59s-2.39-5.29-7.14-64.1a309.37,309.37,0,0,1-4.75-55.29s2.46-230.13,7.46-247.42c0,0-7.15,144.29-4.88,153.39,0,0,5.86-138,10.4-148.6,0,0-6.72,133.86-.91,145.78,0,0,6.18-123.21,11.95-138.13,0,0-2.31,23.64-1.6,30l1.73-11-.25,17.74-1.31,10.25s4-27.77,6-29.7c0,0-2.41-12.66-1.51,37.46C490.84,133.24,476.84,251.78,509.49,428.77Z" fill="#231f20"/><path d="M45.7,428.77s8.47,2-5.77,1.9l-11.39.81-8.37,2-8.31-.59s-2.36-5.29-7.12-64.1A308.89,308.89,0,0,1,0,313.51S2.46,83.38,7.46,66.1c0,0-7.15,144.29-4.87,153.39,0,0,5.86-138,10.4-148.6,0,0-6.72,133.86-.91,145.78,0,0,6.17-123.21,11.93-138.13,0,0-2.3,23.64-1.58,30l1.72-11-.24,17.74-1.33,10.25s4-27.77,6-29.7c0,0-2.42-12.66-1.51,37.46C27.06,133.24,13.05,251.78,45.7,428.77Z" fill="#231f20"/><path d="M328.17,293.85c.15,0,.94,7.57-5.4,2.79-2.15-.55-4.28-1.16-6.35-1.82a55.6,55.6,0,0,1-6.56,1.11l-2.76-4c-.52-.2-.82-1.91,5.47-20,2.68-9,4.95-23.09.12-42.3-4.76-18.76-16.71-43.71-42.28-64.3-.1.44-6.19-5.19-26.09-11.57-20.33-6.37-52.23-10.08-86-.88A123,123,0,0,0,138,160.34c-12.27,5.69-25.78,12.27-38.1,32.08-11.66,19-19.31,50.26-17.43,80.57,1.91,30.77,12.44,62.63,37.35,84.57,24.46,22.24,57.78,34.4,89.18,34,31.64-.05,60.35-13.2,80.14-31.15a145.63,145.63,0,0,0,24.44-28.58c7-10,11.33-18.61,13.84-26.8,4.86-16.16,1.73-28,1-32.66-.77-.27,8.26,20-6.41,47-7.37,13-18.43,29.3-32.75,41.77a122.53,122.53,0,0,1-52.8,27.55c-40.27,10-83.58-4-109-24.46-26.3-20.26-36.06-43.33-38.47-47.45.2-.32,6.67,18.7,27.75,39.26,20.44,20.53,58.28,39.42,98.5,37a122.77,122.77,0,0,0,56.21-16.95,137.09,137.09,0,0,0,40-36.67c10.23-13.93,17.1-26,19.63-36.51,2.74-10.25,2.19-17.74,2.29-20.71-.35-.38,4,19.8-12.24,45.06-14.95,25.84-44.42,56-83.73,64.77-38.75,9.8-80.78-2-107.09-20.72C103.27,352.9,91.08,330.49,87.26,325c.15-.27,7.14,17,27,36,19.42,19,53.87,37.36,92.06,37.87,38.23,1.65,76.1-17.24,98-41.39,22.47-23.87,33.09-48,34.49-57.12.17,0-2.68,14.63-11.53,28.46-8.4,14-20,28-25.36,33.35a158.9,158.9,0,0,0,17.66-20,152.42,152.42,0,0,1-29.07,31.59,132.33,132.33,0,0,1-20.8,13.07A141.62,141.62,0,0,0,297.93,368c13.41-11.24,24.3-26.16,26-27.89,0,0,4-6.74-.42-.49a189.74,189.74,0,0,1-16,20.35c-9.71,10.27-25.23,25.87-53.8,36.93,0-.61-17,8.15-50.55,7.34a146.75,146.75,0,0,1-59-15.29A143.33,143.33,0,0,1,83.82,332.6c-16.06-27.25-23-64.13-15.8-102,3.58-18.69,9.26-38.69,22.17-55.34,12.56-16.71,30.62-29.65,51-37.82a166.78,166.78,0,0,1,66.62-11.31c23.09,1,48.14,5.64,69.79,20.28A141.68,141.68,0,0,1,328.06,207C339.25,232,343.2,265.06,328.17,293.85Z" fill="#231f20"/><path d="M381.46,148.11s.19,1.47-1,.54c-.42-.11-.82-.22-1.23-.35-.42.1-.87.15-1.28.21l-.54-.77c-.1,0-.15-.37,1.08-3.87a15.33,15.33,0,0,0,0-8.18,23.68,23.68,0,0,0-8.18-12.44,21.09,21.09,0,0,0-5.07-2.24,30.56,30.56,0,0,0-16.63-.16,24,24,0,0,0-3.92,1.43,15,15,0,0,0-7.37,6.21c-2.26,3.69-3.74,9.73-3.38,15.59s2.41,12.12,7.24,16.37A25.73,25.73,0,0,0,358.4,167a23.5,23.5,0,0,0,15.52-6,29,29,0,0,0,4.73-5.53,19,19,0,0,0,2.68-5.18,12.66,12.66,0,0,0,.18-6.32,11.9,11.9,0,0,1-1.23,9.11,31.85,31.85,0,0,1-6.35,8.08,23.68,23.68,0,0,1-10.22,5.33,25.59,25.59,0,0,1-28.53-13.92,23.57,23.57,0,0,0,5.37,7.6,26,26,0,0,0,19.07,7.16A23.64,23.64,0,0,0,370.49,164a26.58,26.58,0,0,0,7.74-7.1,21.27,21.27,0,0,0,3.8-7.06,14.57,14.57,0,0,0,.44-4,13.28,13.28,0,0,1-2.37,8.72c-2.9,5-8.58,10.82-16.19,12.53a26.35,26.35,0,0,1-20.74-4,29.09,29.09,0,0,1-8.33-9,25.59,25.59,0,0,0,5.24,7,27.1,27.1,0,0,0,17.81,7.33,25.32,25.32,0,0,0,19-8c4.34-4.62,6.4-9.29,6.67-11.06a15.74,15.74,0,0,1-2.22,5.51,39.66,39.66,0,0,1-4.92,6.45,30.61,30.61,0,0,0,3.42-3.88,29.9,29.9,0,0,1-5.62,6.12,26.19,26.19,0,0,1-4,2.53,28.06,28.06,0,0,0,5.45-3.66,38.38,38.38,0,0,0,5-5.4s.77-1.3-.07-.09a38.25,38.25,0,0,1-3.1,3.94,27,27,0,0,1-10.4,7.15,26.21,26.21,0,0,1-9.78,1.42,28.52,28.52,0,0,1-11.43-3,27.82,27.82,0,0,1-11.68-10.9,28.79,28.79,0,0,1-3-19.74c.69-3.62,1.78-7.49,4.28-10.71a23.1,23.1,0,0,1,9.88-7.32,32.11,32.11,0,0,1,12.89-2.2c4.48.19,9.32,1.09,13.51,3.93a27.39,27.39,0,0,1,9.75,11.74C383.6,136.15,384.35,142.54,381.46,148.11Z" fill="#231f20"/><path d="M182.88,277.36c.18,0,2.1-9.27-1.58,6.51l-2.56,12.82-.33,9.89-2,9.17c-.05-.13-1.38.61-11.63-2-11,.32-28.62-22.79-29.45-47.7-.52,5.39-8.28-37.74,30-57.39-.59.59,17.18-8.26,38.61-7.46,21.78-1.62,65.15,17.84,65.33,59.32,2.05,13.62-2.74,36.56-16.7,49.26-11.54,11.51-26.31,16.76-38.26,18.51-24.44,3.58-40.87-4.41-44.45-6.9-.54-.63,34.08,17.37,71.09-3.91,43.32-28.47,25.48-79.94,19.33-84.33,0,2,23.16,41.38-12.42,76.14-32.37,25.2-69.23,11.2-71.67,7.52-.71-.35,29.84,13.26,60.82-5.16,35.15-22.65,23.11-67.14,15.54-69.76.13.56,13.76,31.21-9.66,56.67-23.35,20.75-54.18,11.7-57.64,7.65-.27.4,17.5,4.79,22.35,2.16a37.69,37.69,0,0,1-8.39-1.26c4.41.29,8.71-.63,13-1.28,2.61.08,5.09-.65,7.73-1-.15,1.1-21.11.72-22-2.74-.5-2.05-7.68,7.73,25-4.18-3,1.56,31.36-6.87,18.08-48.08-7.82-18-36.11-25.22-57.64-12.65-10.15,5.93-16.09,17.05-13,26C172.75,278.83,182.44,285.68,182.88,277.36Z" fill="#231f20"/></svg>